<?xml version="1.0" encoding="UTF-8"?>
<svg id="Ebene_1" data-name="Ebene 1" xmlns="http://www.w3.org/2000/svg" viewBox="0 0 1968 36">
  <defs>
    <style>
      .cls-1 {
        fill: #f0abfc;
        stroke-width: 0px;
      }
    </style>
  </defs>
  <path class="cls-1" d="m0,10.65V0h1968v10.65c-26.1,4.06-58.95,7.83-92.93,7.76-50.08-.11-63.01-8.47-116.43-8.61-60.64-.16-92.82,10.38-164.19,10.6-70.18.21-117.12-11.7-167.43-11.53-78.71.27-70.02,27.13-186.02,27.13-108,0-88.45-27.73-196.87-27.58-72.7.1-83.76,15.11-169.13,14.94-29.63-.06-39.32-6.65-113.31-8.17-63.31-1.3-125.67.53-143.69,3.22-62,9.25-63.4,13.81-132,13.46-65-.33-94-16.02-145.07-15.39-40.85.5-69.72,3.85-109.5,3.5-60.84-.54-35.95-10.48-114.8-11.72-36.14-.57-81.15.89-116.62,2.39Z"/>
</svg>