<?xml version="1.0" encoding="UTF-8"?>
<svg id="Ebene_1" data-name="Ebene 1" xmlns="http://www.w3.org/2000/svg" viewBox="0 0 1968 1072">
  <defs>
    <style>
      .cls-1 {
        fill: #f0abfc;
        stroke-width: 0px;
      }
    </style>
  </defs>
  <path class="cls-1" d="m0,765V0h1968v765c-26.1,49.21-58.95,94.88-92.93,94-50.08-1.29-63.01-102.63-116.43-104.32-60.64-1.92-92.82,125.71-164.19,128.32-70.18,2.57-117.12-141.72-167.43-139.62-78.71,3.29-70.02,328.62-186.02,328.62-108,0-88.45-335.85-196.87-334-72.7,1.24-83.76,183-169.13,181-29.63-.69-39.32-80.55-113.31-99-63.31-15.79-125.67,6.45-143.69,39-62,112-63.4,167.22-132,163-65-4-94-194-145.07-186.42-40.85,6.07-69.72,46.69-109.5,42.42-60.84-6.53-35.95-126.89-114.8-142-36.14-6.92-81.15,10.73-116.62,29Z"/>
</svg>